<svg width="285" height="182" viewBox="0 0 285 182" fill="none" xmlns="http://www.w3.org/2000/svg">
<mask id="path-1-outside-1_112_7" maskUnits="userSpaceOnUse" x="-0.734375" y="-0.399902" width="285" height="183" fill="black">
<rect fill="white" x="-0.734375" y="-0.399902" width="285" height="183"/>
<path d="M153.6 148.6C149.333 148.6 145.2 147.4 141.2 145C137.333 142.6 134.2 138.8 131.8 133.6C129.4 128.4 128.2 121.733 128.2 113.6C128.2 106.933 129 99.4668 130.6 91.2001C132.2 82.8001 134.267 74.4001 136.8 66.0001C139.467 57.6001 142.333 50.0001 145.4 43.2001C136.2 49.3334 128.133 57.8001 121.2 68.6001C114.267 79.4001 108.267 91.9334 103.2 106.2C104.267 110.467 105.133 114.467 105.8 118.2C106.467 121.933 106.8 125.333 106.8 128.4C106.8 134.267 105.4 138.867 102.6 142.2C99.8 145.533 94.9333 147.2 88 147.2C81.8667 147.2 77.3333 145.867 74.4 143.2C71.6 140.4 70.2 136.533 70.2 131.6C70.2 128.4 70.7333 124.733 71.8 120.6C73 116.467 74.6667 112 76.8 107.2C74.4 100.133 71.4667 92.2001 68 83.4001C64.5333 74.4668 59.6667 64.7334 53.4 54.2001C51.5333 62.0668 49.6 69.9334 47.6 77.8001C45.7333 85.5334 44.1333 92.7334 42.8 99.4001C41.6 105.933 41 111.467 41 116C41 123.333 43 127 47 127L47.4 127.4C47.4 131.8 46.2667 135.6 44 138.8C41.8667 141.867 39.0667 144.267 35.6 146C32.2667 147.6 28.7333 148.4 25 148.4C21.4 148.4 17.8667 147.533 14.4 145.8C11.0667 144.067 8.33333 141.4 6.2 137.8C4.06667 134.067 3 129.333 3 123.6C3 118.133 3.93333 112.2 5.8 105.8C7.8 99.2668 10.2667 92.6668 13.2 86.0001C16.1333 79.2001 19.1333 72.6001 22.2 66.2001C25.2667 59.6668 28 53.6001 30.4 48.0001C32.9333 42.2668 34.6 37.2668 35.4 33.0001C32.7333 31.1334 29.8667 30.2001 26.8 30.2001C24.2667 30.2001 21.6667 31.0668 19 32.8001C16.4667 34.4001 14.0667 37.1334 11.8 41.0001L10.4 40.4001C10.5333 33.6001 12 27.4001 14.8 21.8001C17.6 16.0668 21.2667 11.5334 25.8 8.20009C30.4667 4.73342 35.5333 3.00009 41 3.00009C47.2667 3.00009 53.7333 5.73342 60.4 11.2001C67.0667 16.6668 73.2 25.6668 78.8 38.2001C84.5333 50.7334 89.1333 67.6668 92.6 89.0001C97.6667 72.6001 103.133 58.8668 109 47.8001C114.867 36.7334 120.867 27.9334 127 21.4001C133.267 14.8668 139.4 10.2001 145.4 7.40009C151.533 4.46676 157.333 3.00009 162.8 3.00009C169.6 3.00009 175.667 4.66676 181 8.0001C186.467 11.3334 190.733 15.5334 193.8 20.6001C197 25.6668 198.6 30.7334 198.6 35.8001C195.267 34.8668 191.933 34.2001 188.6 33.8001C185.4 33.4001 182.267 33.2001 179.2 33.2001C176.133 33.2001 173.2 33.4001 170.4 33.8001C169.2 39.9334 167.933 46.8001 166.6 54.4001C165.267 61.8668 164.067 69.4001 163 77.0001C162.067 84.6001 161.6 91.6001 161.6 98.0001C161.6 104.533 162.267 109.867 163.6 114C164.933 118.133 167.267 120.2 170.6 120.2C172.733 120.2 174.867 119.267 177 117.4C179.267 115.533 180.933 112.667 182 108.8L183.4 109.4C183.4 118.2 181.933 125.533 179 131.4C176.067 137.133 172.267 141.467 167.6 144.4C163.067 147.2 158.4 148.6 153.6 148.6ZM248.313 179C247.379 179 246.446 178.933 245.513 178.8C244.713 178.8 243.846 178.733 242.913 178.6C242.113 172.867 241.513 167.133 241.113 161.4C240.713 155.8 240.446 150.467 240.313 145.4C233.913 148.333 227.313 149.8 220.513 149.8C211.979 149.8 203.913 147.467 196.313 142.8C188.846 138.133 182.779 131 178.113 121.4C173.446 111.8 171.113 99.7334 171.113 85.2001C171.113 71.0668 173.313 58.8668 177.713 48.6001C182.113 38.3334 187.846 29.8668 194.913 23.2001C201.979 16.5334 209.646 11.6001 217.913 8.40009C226.179 5.20009 234.179 3.60009 241.913 3.60009C248.846 3.60009 255.179 4.80009 260.913 7.20009C266.646 9.46676 271.179 12.7334 274.513 17.0001C277.979 21.1334 279.713 26.1334 279.713 32.0001C279.713 36.8001 278.379 41.3334 275.713 45.6001C273.046 49.8668 268.979 53.3334 263.513 56.0001C258.046 58.5334 251.113 59.8001 242.713 59.8001C244.046 55.9334 244.979 52.4668 245.513 49.4001C246.046 46.3334 246.313 43.6668 246.313 41.4001C246.313 36.3334 245.246 32.9334 243.113 31.2001C240.979 29.3334 238.513 28.4001 235.713 28.4001C230.246 28.4001 225.313 30.8668 220.913 35.8001C216.513 40.7334 213.046 47.2001 210.513 55.2001C207.979 63.0668 206.713 71.5334 206.713 80.6001C206.713 93.5334 209.246 103.667 214.313 111C219.379 118.333 225.713 122 233.313 122C236.246 122 239.313 121.4 242.513 120.2V120C242.513 110 243.379 102.067 245.113 96.2001C246.979 90.2001 249.313 85.9334 252.113 83.4001C255.046 80.8668 258.046 79.6001 261.113 79.6001C264.446 79.6001 267.579 80.7334 270.513 83.0001C273.579 85.2668 276.113 88.2001 278.113 91.8001C280.113 95.2668 281.113 99.0668 281.113 103.2C281.113 106.933 280.046 110.733 277.913 114.6C275.913 118.333 272.446 121.733 267.513 124.8C267.246 125.867 267.046 126.933 266.913 128C266.779 129.067 266.713 130.133 266.713 131.2C266.713 134.8 267.446 138.867 268.912 143.4C270.513 147.933 272.979 154.267 276.312 162.4C275.513 165.467 273.646 168.267 270.713 170.8C267.913 173.333 264.513 175.333 260.513 176.8C256.646 178.267 252.579 179 248.313 179Z"/>
</mask>
<path d="M153.6 148.6C149.333 148.6 145.2 147.4 141.2 145C137.333 142.6 134.2 138.8 131.8 133.6C129.4 128.4 128.2 121.733 128.2 113.6C128.2 106.933 129 99.4668 130.6 91.2001C132.2 82.8001 134.267 74.4001 136.8 66.0001C139.467 57.6001 142.333 50.0001 145.4 43.2001C136.2 49.3334 128.133 57.8001 121.2 68.6001C114.267 79.4001 108.267 91.9334 103.2 106.2C104.267 110.467 105.133 114.467 105.8 118.2C106.467 121.933 106.8 125.333 106.8 128.4C106.8 134.267 105.4 138.867 102.6 142.2C99.8 145.533 94.9333 147.2 88 147.2C81.8667 147.2 77.3333 145.867 74.4 143.2C71.6 140.4 70.2 136.533 70.2 131.6C70.2 128.4 70.7333 124.733 71.8 120.6C73 116.467 74.6667 112 76.8 107.2C74.4 100.133 71.4667 92.2001 68 83.4001C64.5333 74.4668 59.6667 64.7334 53.4 54.2001C51.5333 62.0668 49.6 69.9334 47.6 77.8001C45.7333 85.5334 44.1333 92.7334 42.8 99.4001C41.6 105.933 41 111.467 41 116C41 123.333 43 127 47 127L47.4 127.4C47.4 131.8 46.2667 135.6 44 138.8C41.8667 141.867 39.0667 144.267 35.6 146C32.2667 147.6 28.7333 148.4 25 148.4C21.4 148.4 17.8667 147.533 14.4 145.8C11.0667 144.067 8.33333 141.4 6.2 137.8C4.06667 134.067 3 129.333 3 123.6C3 118.133 3.93333 112.2 5.8 105.8C7.8 99.2668 10.2667 92.6668 13.2 86.0001C16.1333 79.2001 19.1333 72.6001 22.2 66.2001C25.2667 59.6668 28 53.6001 30.4 48.0001C32.9333 42.2668 34.6 37.2668 35.4 33.0001C32.7333 31.1334 29.8667 30.2001 26.8 30.2001C24.2667 30.2001 21.6667 31.0668 19 32.8001C16.4667 34.4001 14.0667 37.1334 11.8 41.0001L10.4 40.4001C10.5333 33.6001 12 27.4001 14.8 21.8001C17.6 16.0668 21.2667 11.5334 25.8 8.20009C30.4667 4.73342 35.5333 3.00009 41 3.00009C47.2667 3.00009 53.7333 5.73342 60.4 11.2001C67.0667 16.6668 73.2 25.6668 78.8 38.2001C84.5333 50.7334 89.1333 67.6668 92.6 89.0001C97.6667 72.6001 103.133 58.8668 109 47.8001C114.867 36.7334 120.867 27.9334 127 21.4001C133.267 14.8668 139.4 10.2001 145.4 7.40009C151.533 4.46676 157.333 3.00009 162.8 3.00009C169.6 3.00009 175.667 4.66676 181 8.0001C186.467 11.3334 190.733 15.5334 193.8 20.6001C197 25.6668 198.6 30.7334 198.6 35.8001C195.267 34.8668 191.933 34.2001 188.6 33.8001C185.4 33.4001 182.267 33.2001 179.2 33.2001C176.133 33.2001 173.2 33.4001 170.4 33.8001C169.2 39.9334 167.933 46.8001 166.6 54.4001C165.267 61.8668 164.067 69.4001 163 77.0001C162.067 84.6001 161.6 91.6001 161.6 98.0001C161.6 104.533 162.267 109.867 163.6 114C164.933 118.133 167.267 120.2 170.6 120.2C172.733 120.2 174.867 119.267 177 117.4C179.267 115.533 180.933 112.667 182 108.8L183.4 109.4C183.4 118.2 181.933 125.533 179 131.4C176.067 137.133 172.267 141.467 167.6 144.4C163.067 147.2 158.4 148.6 153.6 148.6ZM248.313 179C247.379 179 246.446 178.933 245.513 178.8C244.713 178.8 243.846 178.733 242.913 178.6C242.113 172.867 241.513 167.133 241.113 161.4C240.713 155.8 240.446 150.467 240.313 145.4C233.913 148.333 227.313 149.8 220.513 149.8C211.979 149.8 203.913 147.467 196.313 142.8C188.846 138.133 182.779 131 178.113 121.4C173.446 111.8 171.113 99.7334 171.113 85.2001C171.113 71.0668 173.313 58.8668 177.713 48.6001C182.113 38.3334 187.846 29.8668 194.913 23.2001C201.979 16.5334 209.646 11.6001 217.913 8.40009C226.179 5.20009 234.179 3.60009 241.913 3.60009C248.846 3.60009 255.179 4.80009 260.913 7.20009C266.646 9.46676 271.179 12.7334 274.513 17.0001C277.979 21.1334 279.713 26.1334 279.713 32.0001C279.713 36.8001 278.379 41.3334 275.713 45.6001C273.046 49.8668 268.979 53.3334 263.513 56.0001C258.046 58.5334 251.113 59.8001 242.713 59.8001C244.046 55.9334 244.979 52.4668 245.513 49.4001C246.046 46.3334 246.313 43.6668 246.313 41.4001C246.313 36.3334 245.246 32.9334 243.113 31.2001C240.979 29.3334 238.513 28.4001 235.713 28.4001C230.246 28.4001 225.313 30.8668 220.913 35.8001C216.513 40.7334 213.046 47.2001 210.513 55.2001C207.979 63.0668 206.713 71.5334 206.713 80.6001C206.713 93.5334 209.246 103.667 214.313 111C219.379 118.333 225.713 122 233.313 122C236.246 122 239.313 121.4 242.513 120.2V120C242.513 110 243.379 102.067 245.113 96.2001C246.979 90.2001 249.313 85.9334 252.113 83.4001C255.046 80.8668 258.046 79.6001 261.113 79.6001C264.446 79.6001 267.579 80.7334 270.513 83.0001C273.579 85.2668 276.113 88.2001 278.113 91.8001C280.113 95.2668 281.113 99.0668 281.113 103.2C281.113 106.933 280.046 110.733 277.913 114.6C275.913 118.333 272.446 121.733 267.513 124.8C267.246 125.867 267.046 126.933 266.913 128C266.779 129.067 266.713 130.133 266.713 131.2C266.713 134.8 267.446 138.867 268.912 143.4C270.513 147.933 272.979 154.267 276.312 162.4C275.513 165.467 273.646 168.267 270.713 170.8C267.913 173.333 264.513 175.333 260.513 176.8C256.646 178.267 252.579 179 248.313 179Z" fill="white"/>
<path d="M141.2 145L139.618 147.549L139.637 147.561L139.657 147.573L141.2 145ZM131.8 133.6L129.076 134.857L131.8 133.6ZM130.6 91.2001L133.545 91.7702L133.547 91.7614L130.6 91.2001ZM136.8 66.0001L133.941 65.0924L133.934 65.1131L133.928 65.1339L136.8 66.0001ZM145.4 43.2001L148.135 44.4334L152.431 34.9073L143.736 40.7039L145.4 43.2001ZM121.2 68.6001L123.725 70.2208L121.2 68.6001ZM103.2 106.2L100.373 105.196L100.07 106.049L100.29 106.928L103.2 106.2ZM105.8 118.2L108.753 117.673L105.8 118.2ZM102.6 142.2L104.897 144.13L102.6 142.2ZM74.4 143.2L72.2787 145.321L72.3292 145.372L72.382 145.42L74.4 143.2ZM71.8 120.6L68.919 119.764L68.9064 119.807L68.8952 119.85L71.8 120.6ZM76.8 107.2L79.5414 108.419L80.018 107.346L79.6406 106.235L76.8 107.2ZM68 83.4001L65.2032 84.4854L65.206 84.4926L65.2088 84.4997L68 83.4001ZM53.4 54.2001L55.9782 52.6662L52.1911 46.3007L50.481 53.5075L53.4 54.2001ZM47.6 77.8001L44.6925 77.0609L44.688 77.0785L44.6838 77.0962L47.6 77.8001ZM42.8 99.4001L39.8583 98.8118L39.8536 98.8349L39.8494 98.8581L42.8 99.4001ZM47 127L49.1213 124.879L48.2427 124H47V127ZM47.4 127.4H50.4V126.157L49.5213 125.279L47.4 127.4ZM44 138.8L41.5519 137.066L41.5446 137.076L41.5373 137.087L44 138.8ZM35.6 146L36.8982 148.705L36.92 148.694L36.9416 148.683L35.6 146ZM14.4 145.8L13.0159 148.462L13.0371 148.473L13.0584 148.483L14.4 145.8ZM6.2 137.8L3.59527 139.289L3.60704 139.309L3.61913 139.329L6.2 137.8ZM5.8 105.8L2.9314 104.922L2.92558 104.941L2.92 104.96L5.8 105.8ZM13.2 86.0001L15.9459 87.2083L15.9503 87.1983L15.9546 87.1884L13.2 86.0001ZM22.2 66.2001L24.9054 67.4965L24.9106 67.4857L24.9157 67.4748L22.2 66.2001ZM30.4 48.0001L27.6559 46.7876L27.6492 46.8029L27.6426 46.8183L30.4 48.0001ZM35.4 33.0001L38.3486 33.553L38.7051 31.6517L37.1204 30.5424L35.4 33.0001ZM19 32.8001L20.602 35.3365L20.6185 35.3261L20.635 35.3154L19 32.8001ZM11.8 41.0001L10.6183 43.7575L13.0501 44.7997L14.3881 42.5172L11.8 41.0001ZM10.4 40.4001L7.40058 40.3413L7.36097 42.3616L9.21825 43.1575L10.4 40.4001ZM14.8 21.8001L17.4833 23.1417L17.4896 23.1292L17.4957 23.1166L14.8 21.8001ZM25.8 8.2001L27.5772 10.6171L27.5831 10.6127L27.589 10.6083L25.8 8.2001ZM60.4 11.2001L62.3022 8.88029L60.4 11.2001ZM78.8 38.2001L76.061 39.4239L76.0664 39.436L76.0719 39.4481L78.8 38.2001ZM92.6 89.0001L89.6388 89.4813L95.4663 89.8856L92.6 89.0001ZM109 47.8001L106.349 46.395V46.395L109 47.8001ZM127 21.4001L124.835 19.3234L124.824 19.335L124.813 19.3468L127 21.4001ZM145.4 7.40009L146.669 10.1186L146.682 10.1126L146.694 10.1065L145.4 7.40009ZM181 8.0001L179.41 10.5441L179.424 10.5529L179.438 10.5615L181 8.0001ZM193.8 20.6001L191.234 22.1535L191.248 22.1779L191.264 22.2021L193.8 20.6001ZM198.6 35.8001L197.791 38.689L201.6 39.7555V35.8001H198.6ZM188.6 33.8001L188.228 36.7769L188.235 36.7778L188.243 36.7787L188.6 33.8001ZM170.4 33.8001L169.976 30.8302L167.865 31.1318L167.456 33.2241L170.4 33.8001ZM166.6 54.4001L169.553 54.9275L169.555 54.9185L166.6 54.4001ZM163 77.0001L160.029 76.5831L160.026 76.6087L160.022 76.6344L163 77.0001ZM177 117.4L175.093 115.084L175.058 115.113L175.024 115.142L177 117.4ZM182 108.8L183.182 106.043L180.022 104.689L179.108 108.002L182 108.8ZM183.4 109.4H186.4V107.422L184.582 106.643L183.4 109.4ZM179 131.4L181.671 132.767L181.677 132.754L181.683 132.742L179 131.4ZM167.6 144.4L169.176 146.952L169.187 146.946L169.197 146.94L167.6 144.4ZM153.6 148.6V145.6C149.927 145.6 146.322 144.575 142.743 142.428L141.2 145L139.657 147.573C144.078 150.225 148.74 151.6 153.6 151.6V148.6ZM141.2 145L142.782 142.451C139.529 140.432 136.741 137.147 134.524 132.343L131.8 133.6L129.076 134.857C131.659 140.453 135.138 144.768 139.618 147.549L141.2 145ZM131.8 133.6L134.524 132.343C132.366 127.666 131.2 121.469 131.2 113.6H128.2H125.2C125.2 121.998 126.434 129.134 129.076 134.857L131.8 133.6ZM128.2 113.6H131.2C131.2 107.167 131.973 99.8955 133.545 91.7702L130.6 91.2001L127.655 90.63C126.027 99.038 125.2 106.7 125.2 113.6H128.2ZM130.6 91.2001L133.547 91.7614C135.127 83.4669 137.168 75.1687 139.672 66.8663L136.8 66.0001L133.928 65.1339C131.365 73.6315 129.273 82.1333 127.653 90.6388L130.6 91.2001ZM136.8 66.0001L139.659 66.9078C142.297 58.5994 145.124 51.1104 148.135 44.4334L145.4 43.2001L142.665 41.9668C139.543 48.8897 136.636 56.6008 133.941 65.0924L136.8 66.0001ZM145.4 43.2001L143.736 40.7039C134.141 47.1006 125.797 55.8868 118.675 66.9794L121.2 68.6001L123.725 70.2208C130.47 59.7133 138.259 51.5663 147.064 45.6962L145.4 43.2001ZM121.2 68.6001L118.675 66.9794C111.598 78.0036 105.503 90.7505 100.373 105.196L103.2 106.2L106.027 107.204C111.03 93.1164 116.935 80.7966 123.725 70.2208L121.2 68.6001ZM103.2 106.2L100.29 106.928C101.342 111.138 102.194 115.071 102.847 118.727L105.8 118.2L108.753 117.673C108.073 113.863 107.191 109.795 106.11 105.472L103.2 106.2ZM105.8 118.2L102.847 118.727C103.489 122.326 103.8 125.546 103.8 128.4H106.8H109.8C109.8 125.121 109.444 121.541 108.753 117.673L105.8 118.2ZM106.8 128.4H103.8C103.8 133.807 102.512 137.64 100.303 140.271L102.6 142.2L104.897 144.13C108.288 140.093 109.8 134.726 109.8 128.4H106.8ZM102.6 142.2L100.303 140.271C98.3393 142.608 94.5678 144.2 88 144.2V147.2V150.2C95.2989 150.2 101.261 148.459 104.897 144.13L102.6 142.2ZM88 147.2V144.2C82.22 144.2 78.5647 142.932 76.418 140.98L74.4 143.2L72.382 145.42C76.102 148.802 81.5134 150.2 88 150.2V147.2ZM74.4 143.2L76.5213 141.079C74.415 138.972 73.2 135.945 73.2 131.6H70.2H67.2C67.2 137.122 68.785 141.828 72.2787 145.321L74.4 143.2ZM70.2 131.6H73.2C73.2 128.721 73.6817 125.314 74.7048 121.35L71.8 120.6L68.8952 119.85C67.7849 124.153 67.2 128.079 67.2 131.6H70.2ZM71.8 120.6L74.681 121.437C75.836 117.458 77.4517 113.12 79.5414 108.419L76.8 107.2L74.0586 105.982C71.8816 110.88 70.164 115.475 68.919 119.764L71.8 120.6ZM76.8 107.2L79.6406 106.235C77.2218 99.1133 74.2711 91.1339 70.7912 82.3005L68 83.4001L65.2088 84.4997C68.6623 93.2663 71.5782 101.154 73.9594 108.165L76.8 107.2ZM68 83.4001L70.7968 82.3148C67.2559 73.1902 62.3078 63.3053 55.9782 52.6662L53.4 54.2001L50.8218 55.734C57.0255 66.1615 61.8107 75.7433 65.2032 84.4854L68 83.4001ZM53.4 54.2001L50.481 53.5075C48.6181 61.3585 46.6886 69.2097 44.6925 77.0609L47.6 77.8001L50.5075 78.5393C52.5114 70.6572 54.4486 62.775 56.3189 54.8927L53.4 54.2001ZM47.6 77.8001L44.6838 77.0962C42.8093 84.8616 41.2005 92.1006 39.8583 98.8118L42.8 99.4001L45.7417 99.9884C47.0662 93.3663 48.6573 86.2052 50.5163 78.504L47.6 77.8001ZM42.8 99.4001L39.8494 98.8581C38.6302 105.496 38 111.222 38 116H41H44C44 111.711 44.5698 106.371 45.7506 99.942L42.8 99.4001ZM41 116H38C38 119.841 38.5069 123.194 39.8663 125.687C40.5706 126.978 41.5342 128.092 42.8107 128.872C44.0939 129.657 45.5257 130 47 130V127V124C46.4743 124 46.1561 123.885 45.9394 123.753C45.7158 123.616 45.4294 123.356 45.1337 122.814C44.4931 121.639 44 119.492 44 116H41ZM47 127L44.8787 129.121L45.2787 129.521L47.4 127.4L49.5213 125.279L49.1213 124.879L47 127ZM47.4 127.4H44.4C44.4 131.258 43.4164 134.434 41.5519 137.066L44 138.8L46.4481 140.534C49.1169 136.766 50.4 132.342 50.4 127.4H47.4ZM44 138.8L41.5373 137.087C39.7016 139.726 37.2936 141.799 34.2584 143.317L35.6 146L36.9416 148.683C40.8398 146.734 44.0318 144.008 46.4627 140.513L44 138.8ZM35.6 146L34.3018 143.296C31.3777 144.699 28.2885 145.4 25 145.4V148.4V151.4C29.1782 151.4 33.1557 150.501 36.8982 148.705L35.6 146ZM25 148.4V145.4C21.9009 145.4 18.8244 144.658 15.7416 143.117L14.4 145.8L13.0584 148.483C16.909 150.409 20.8991 151.4 25 151.4V148.4ZM14.4 145.8L15.7841 143.138C13.0027 141.692 10.6622 139.445 8.78088 136.271L6.2 137.8L3.61913 139.329C6.00444 143.355 9.13062 146.441 13.0159 148.462L14.4 145.8ZM6.2 137.8L8.80473 136.312C7.00271 133.158 6 128.979 6 123.6H3H0C0 129.687 1.13062 134.975 3.59527 139.289L6.2 137.8ZM3 123.6H6C6 118.472 6.87616 112.825 8.68 106.64L5.8 105.8L2.92 104.96C0.990513 111.575 0 117.795 0 123.6H3ZM5.8 105.8L8.6686 106.678C10.632 100.264 13.0568 93.7744 15.9459 87.2083L13.2 86.0001L10.4541 84.7919C7.47649 91.5591 4.96796 98.2692 2.9314 104.922L5.8 105.8ZM13.2 86.0001L15.9546 87.1884C18.873 80.4232 21.8566 73.8593 24.9054 67.4965L22.2 66.2001L19.4946 64.9037C16.4101 71.3409 13.3937 77.977 10.4454 84.8118L13.2 86.0001ZM22.2 66.2001L24.9157 67.4748C27.9943 60.9162 30.7419 54.8181 33.1574 49.1819L30.4 48.0001L27.6426 46.8183C25.2581 52.3821 22.5391 58.4174 19.4843 64.9254L22.2 66.2001ZM30.4 48.0001L33.1441 49.2126C35.7334 43.3525 37.4919 38.1224 38.3486 33.553L35.4 33.0001L32.4514 32.4472C31.7082 36.4112 30.1333 41.181 27.6559 46.7876L30.4 48.0001ZM35.4 33.0001L37.1204 30.5424C33.9822 28.3457 30.521 27.2001 26.8 27.2001V30.2001V33.2001C29.2123 33.2001 31.4844 33.9212 33.6796 35.4578L35.4 33.0001ZM26.8 30.2001V27.2001C23.5542 27.2001 20.3943 28.3157 17.365 30.2848L19 32.8001L20.635 35.3154C22.939 33.8178 24.9791 33.2001 26.8 33.2001V30.2001ZM19 32.8001L17.398 30.2636C14.3079 32.2153 11.6106 35.391 9.21191 39.4829L11.8 41.0001L14.3881 42.5172C16.5227 38.8758 18.6254 36.5849 20.602 35.3365L19 32.8001ZM11.8 41.0001L12.9817 38.2426L11.5817 37.6427L10.4 40.4001L9.21825 43.1575L10.6183 43.7575L11.8 41.0001ZM10.4 40.4001L13.3994 40.4589C13.5248 34.0656 14.8995 28.3094 17.4833 23.1417L14.8 21.8001L12.1167 20.4585C9.10055 26.4908 7.54189 33.1346 7.40058 40.3413L10.4 40.4001ZM14.8 21.8001L17.4957 23.1166C20.1117 17.76 23.4841 13.6267 27.5772 10.6171L25.8 8.2001L24.0228 5.78314C19.0493 9.44017 15.0883 14.3735 12.1043 20.4836L14.8 21.8001ZM25.8 8.2001L27.589 10.6083C31.7733 7.49999 36.2199 6.00009 41 6.00009V3.00009V9.15527e-05C34.8468 9.15527e-05 29.1601 1.96686 24.011 5.79186L25.8 8.2001ZM41 3.00009V6.00009C46.3521 6.00009 52.1673 8.32894 58.4978 13.5199L60.4 11.2001L62.3022 8.88029C55.2993 3.1379 48.1812 9.15527e-05 41 9.15527e-05V3.00009ZM60.4 11.2001L58.4978 13.5199C64.6525 18.5668 70.5504 27.0907 76.061 39.4239L78.8 38.2001L81.539 36.9763C75.8496 24.2428 69.4808 14.7667 62.3022 8.88029L60.4 11.2001ZM78.8 38.2001L76.0719 39.4481C81.6491 51.6401 86.1938 68.2809 89.6388 89.4813L92.6 89.0001L95.5612 88.5189C92.0729 67.0526 87.4176 49.8268 81.5281 36.9521L78.8 38.2001ZM92.6 89.0001L95.4663 89.8856C100.496 73.6043 105.897 60.0577 111.651 49.2052L109 47.8001L106.349 46.395C100.369 57.6758 94.837 71.5959 89.7337 88.1146L92.6 89.0001ZM109 47.8001L111.651 49.2052C117.438 38.2885 123.293 29.7323 129.187 23.4534L127 21.4001L124.813 19.3468C118.441 26.1346 112.296 35.1784 106.349 46.395L109 47.8001ZM127 21.4001L129.165 23.4768C135.263 17.1192 141.103 12.7159 146.669 10.1186L145.4 7.40009L144.131 4.68154C137.697 7.6843 131.27 12.6143 124.835 19.3234L127 21.4001ZM145.4 7.40009L146.694 10.1065C152.52 7.32049 157.877 6.00009 162.8 6.00009V3.00009V9.15527e-05C156.79 9.15527e-05 150.547 1.61302 144.106 4.69369L145.4 7.40009ZM162.8 3.00009V6.00009C169.085 6.00009 174.592 7.53294 179.41 10.5441L181 8.0001L182.59 5.4561C176.741 1.80058 170.115 9.15527e-05 162.8 9.15527e-05V3.00009ZM181 8.0001L179.438 10.5615C184.528 13.6651 188.436 17.5314 191.234 22.1535L193.8 20.6001L196.367 19.0467C193.031 13.5354 188.405 9.00179 182.562 5.43871L181 8.0001ZM193.8 20.6001L191.264 22.2021C194.217 26.8781 195.6 31.3971 195.6 35.8001H198.6H201.6C201.6 30.0697 199.783 24.4554 196.336 18.9981L193.8 20.6001ZM198.6 35.8001L199.409 32.9112C195.932 31.9377 192.448 31.2403 188.957 30.8215L188.6 33.8001L188.243 36.7787C191.419 37.1599 194.601 37.7958 197.791 38.689L198.6 35.8001ZM188.6 33.8001L188.972 30.8233C185.655 30.4086 182.397 30.2001 179.2 30.2001V33.2001V36.2001C182.136 36.2001 185.145 36.3916 188.228 36.7769L188.6 33.8001ZM179.2 33.2001V30.2001C176.003 30.2001 172.927 30.4086 169.976 30.8302L170.4 33.8001L170.824 36.7699C173.473 36.3916 176.264 36.2001 179.2 36.2001V33.2001ZM170.4 33.8001L167.456 33.2241C166.251 39.3804 164.981 46.2667 163.645 53.8817L166.6 54.4001L169.555 54.9185C170.886 47.3335 172.149 40.4865 173.344 34.3761L170.4 33.8001ZM166.6 54.4001L163.647 53.8727C162.307 61.3765 161.101 68.9467 160.029 76.5831L163 77.0001L165.971 77.4171C167.032 69.8535 168.227 62.357 169.553 54.9275L166.6 54.4001ZM163 77.0001L160.022 76.6344C159.077 84.333 158.6 91.4569 158.6 98.0001H161.6H164.6C164.6 91.7433 165.056 84.8672 165.978 77.3658L163 77.0001ZM161.6 98.0001H158.6C158.6 104.705 159.28 110.38 160.745 114.921L163.6 114L166.455 113.079C165.253 109.353 164.6 104.362 164.6 98.0001H161.6ZM163.6 114L160.745 114.921C161.515 117.307 162.664 119.393 164.361 120.896C166.116 122.451 168.256 123.2 170.6 123.2V120.2V117.2C169.611 117.2 168.917 116.916 168.339 116.404C167.702 115.84 167.019 114.826 166.455 113.079L163.6 114ZM170.6 120.2V123.2C173.67 123.2 176.478 121.843 178.976 119.658L177 117.4L175.024 115.142C173.256 116.69 171.796 117.2 170.6 117.2V120.2ZM177 117.4L178.907 119.716C181.797 117.336 183.72 113.847 184.892 109.598L182 108.8L179.108 108.002C178.147 111.487 176.737 113.73 175.093 115.084L177 117.4ZM182 108.8L180.818 111.558L182.218 112.158L183.4 109.4L184.582 106.643L183.182 106.043L182 108.8ZM183.4 109.4H180.4C180.4 117.886 178.983 124.726 176.317 130.058L179 131.4L181.683 132.742C184.884 126.341 186.4 118.514 186.4 109.4H183.4ZM179 131.4L176.329 130.034C173.6 135.368 170.141 139.26 166.003 141.86L167.6 144.4L169.197 146.94C174.392 143.674 178.533 138.899 181.671 132.767L179 131.4ZM167.6 144.4L166.024 141.848C161.91 144.388 157.783 145.6 153.6 145.6V148.6V151.6C159.017 151.6 164.223 150.012 169.176 146.952L167.6 144.4ZM245.513 178.8L245.937 175.83L245.726 175.8H245.513V178.8ZM242.913 178.6L239.941 179.015L240.253 181.251L242.488 181.57L242.913 178.6ZM241.113 161.4L244.105 161.191L244.105 161.186L241.113 161.4ZM240.312 145.4L243.311 145.321L243.192 140.78L239.063 142.673L240.312 145.4ZM196.312 142.8L194.723 145.344L194.733 145.35L194.743 145.357L196.312 142.8ZM178.113 121.4L175.414 122.712L178.113 121.4ZM177.712 48.6001L180.47 49.7819L177.712 48.6001ZM194.913 23.2001L192.854 21.0179L194.913 23.2001ZM217.913 8.40009L216.83 5.60239L217.913 8.40009ZM260.913 7.2001L259.754 9.96741L259.782 9.97897L259.81 9.98997L260.913 7.2001ZM274.513 17.0001L272.148 18.847L272.18 18.888L272.214 18.9279L274.513 17.0001ZM275.712 45.6001L273.169 44.0101V44.0101L275.712 45.6001ZM263.513 56.0001L264.774 58.722L264.801 58.7095L264.828 58.6964L263.513 56.0001ZM242.712 59.8001L239.876 58.8221L238.505 62.8001H242.712V59.8001ZM245.513 49.4001L248.468 49.9141L245.513 49.4001ZM243.113 31.2001L241.137 33.4578L241.178 33.4939L241.221 33.5284L243.113 31.2001ZM210.512 55.2001L213.368 56.1197L213.37 56.1127L213.373 56.1058L210.512 55.2001ZM214.312 111L216.781 109.295L214.312 111ZM242.513 120.2L243.566 123.009L245.513 122.279V120.2H242.513ZM245.112 96.2001L242.248 95.3089L242.242 95.3294L242.235 95.3501L245.112 96.2001ZM252.113 83.4001L250.152 81.1296L250.125 81.1523L250.1 81.1755L252.113 83.4001ZM270.513 83.0001L268.678 85.3739L268.704 85.3936L268.729 85.4126L270.513 83.0001ZM278.112 91.8001L275.49 93.257L275.502 93.2782L275.514 93.2993L278.112 91.8001ZM277.913 114.6L275.286 113.151L275.277 113.167L275.268 113.183L277.913 114.6ZM267.513 124.8L265.929 122.252L264.897 122.894L264.602 124.072L267.513 124.8ZM266.913 128L263.936 127.628V127.628L266.913 128ZM268.913 143.4L266.058 144.324L266.07 144.361L266.084 144.399L268.913 143.4ZM276.312 162.4L279.215 163.157L279.468 162.189L279.088 161.262L276.312 162.4ZM270.712 170.8L268.752 168.53L268.725 168.552L268.7 168.576L270.712 170.8ZM260.513 176.8L259.48 173.983L259.464 173.989L259.449 173.995L260.513 176.8ZM248.312 179V176C247.523 176 246.731 175.944 245.937 175.83L245.513 178.8L245.088 181.77C246.161 181.923 247.236 182 248.312 182V179ZM245.513 178.8V175.8C244.877 175.8 244.154 175.747 243.337 175.63L242.913 178.6L242.488 181.57C243.538 181.72 244.548 181.8 245.513 181.8V178.8ZM242.913 178.6L245.884 178.186C245.093 172.52 244.5 166.855 244.105 161.191L241.113 161.4L238.12 161.609C238.525 167.412 239.132 173.214 239.941 179.015L242.913 178.6ZM241.113 161.4L244.105 161.186C243.708 155.627 243.443 150.338 243.311 145.321L240.312 145.4L237.314 145.479C237.448 150.595 237.717 155.974 238.12 161.614L241.113 161.4ZM240.312 145.4L239.063 142.673C233.04 145.433 226.866 146.8 220.512 146.8V149.8V152.8C227.759 152.8 234.784 151.234 241.562 148.127L240.312 145.4ZM220.512 149.8V146.8C212.559 146.8 205.032 144.634 197.882 140.244L196.312 142.8L194.743 145.357C202.793 150.3 211.399 152.8 220.512 152.8V149.8ZM196.312 142.8L197.902 140.256C191.006 135.946 185.284 129.29 180.811 120.089L178.113 121.4L175.414 122.712C180.275 132.71 186.685 140.321 194.723 145.344L196.312 142.8ZM178.113 121.4L180.811 120.089C176.401 111.017 174.113 99.4346 174.113 85.2001H171.113H168.113C168.113 100.032 170.491 112.583 175.414 122.712L178.113 121.4ZM171.113 85.2001H174.113C174.113 71.3692 176.266 59.5902 180.47 49.7819L177.712 48.6001L174.955 47.4183C170.359 58.1434 168.113 70.7644 168.113 85.2001H171.113ZM177.712 48.6001L180.47 49.7819C184.732 39.8368 190.245 31.7277 196.971 25.3823L194.913 23.2001L192.854 21.0179C185.447 28.0058 179.493 36.8301 174.955 47.4183L177.712 48.6001ZM194.913 23.2001L196.971 25.3823C203.783 18.9563 211.124 14.2448 218.995 11.1978L217.913 8.40009L216.83 5.60239C208.168 8.95541 200.176 14.1105 192.854 21.0179L194.913 23.2001ZM217.913 8.40009L218.995 11.1978C226.967 8.11217 234.6 6.60009 241.913 6.60009V3.60009V0.60009C233.759 0.60009 225.392 2.28802 216.83 5.60239L217.913 8.40009ZM241.913 3.60009V6.60009C248.494 6.60009 254.428 7.73781 259.754 9.96741L260.913 7.2001L262.071 4.43277C255.931 1.86238 249.198 0.60009 241.913 0.60009V3.60009ZM260.913 7.2001L259.81 9.98997C265.116 12.088 269.188 15.0571 272.148 18.847L274.513 17.0001L276.877 15.1532C273.171 10.4098 268.175 6.84555 262.015 4.41021L260.913 7.2001ZM274.513 17.0001L272.214 18.9279C275.187 22.4724 276.712 26.7722 276.712 32.0001H279.712H282.712C282.712 25.4946 280.772 19.7945 276.811 15.0723L274.513 17.0001ZM279.712 32.0001H276.712C276.712 36.2101 275.552 40.1961 273.169 44.0101L275.712 45.6001L278.257 47.1901C281.206 42.4707 282.712 37.3901 282.712 32.0001H279.712ZM275.712 45.6001L273.169 44.0101C270.857 47.7091 267.265 50.8317 262.197 53.3038L263.513 56.0001L264.828 58.6964C270.693 55.8351 275.235 52.0244 278.257 47.1901L275.712 45.6001ZM263.513 56.0001L262.251 53.2782C257.303 55.571 250.838 56.8001 242.712 56.8001V59.8001V62.8001C251.387 62.8001 258.788 61.4959 264.774 58.722L263.513 56.0001ZM242.712 59.8001L245.549 60.7781C246.919 56.8042 247.9 53.1784 248.468 49.9141L245.513 49.4001L242.557 48.8861C242.058 51.7551 241.173 55.0626 239.876 58.8221L242.712 59.8001ZM245.513 49.4001L248.468 49.9141C249.021 46.7356 249.312 43.8893 249.312 41.4001H246.312H243.312C243.312 43.4442 243.071 45.9312 242.557 48.8861L245.513 49.4001ZM246.312 41.4001H249.312C249.312 36.1406 248.248 31.5076 245.004 28.8718L243.113 31.2001L241.221 33.5284C242.243 34.3593 243.312 36.5262 243.312 41.4001H246.312ZM243.113 31.2001L245.088 28.9424C242.415 26.6037 239.249 25.4001 235.712 25.4001V28.4001V31.4001C237.776 31.4001 239.543 32.0631 241.137 33.4578L243.113 31.2001ZM235.712 28.4001V25.4001C229.214 25.4001 223.513 28.377 218.674 33.8033L220.913 35.8001L223.151 37.7969C227.112 33.3566 231.278 31.4001 235.712 31.4001V28.4001ZM220.913 35.8001L218.674 33.8033C213.927 39.1254 210.28 45.9959 207.652 54.2944L210.512 55.2001L213.373 56.1058C215.811 48.4043 219.098 42.3415 223.151 37.7969L220.913 35.8001ZM210.512 55.2001L207.657 54.2805C205.019 62.4717 203.712 71.2514 203.712 80.6001H206.712H209.712C209.712 71.8155 210.939 63.6618 213.368 56.1197L210.512 55.2001ZM206.712 80.6001H203.712C203.712 93.8806 206.307 104.691 211.844 112.705L214.312 111L216.781 109.295C212.184 102.642 209.712 93.1863 209.712 80.6001H206.712ZM214.312 111L211.844 112.705C217.36 120.688 224.546 125 233.312 125V122V119C226.879 119 221.398 115.978 216.781 109.295L214.312 111ZM233.312 122V125C236.66 125 240.084 124.315 243.566 123.009L242.513 120.2L241.459 117.391C238.541 118.485 235.832 119 233.312 119V122ZM242.513 120.2H245.513V120H242.513H239.513V120.2H242.513ZM242.513 120H245.513C245.513 110.13 246.373 102.522 247.99 97.0501L245.112 96.2001L242.235 95.3501C240.385 101.611 239.513 109.87 239.513 120H242.513ZM245.112 96.2001L247.977 97.0913C249.778 91.3012 251.906 87.6322 254.125 85.6247L252.113 83.4001L250.1 81.1755C246.719 84.2347 244.18 89.099 242.248 95.3089L245.112 96.2001ZM252.113 83.4001L254.073 85.6706C256.61 83.4799 258.94 82.6001 261.113 82.6001V79.6001V76.6001C257.152 76.6001 253.482 78.2536 250.152 81.1296L252.113 83.4001ZM261.113 79.6001V82.6001C263.707 82.6001 266.208 83.4651 268.678 85.3739L270.513 83.0001L272.347 80.6262C268.95 78.0017 265.184 76.6001 261.113 76.6001V79.6001ZM270.513 83.0001L268.729 85.4126C271.424 87.4045 273.681 90.0015 275.49 93.257L278.112 91.8001L280.735 90.3432C278.544 86.3987 275.734 83.129 272.296 80.5876L270.513 83.0001ZM278.112 91.8001L275.514 93.2993C277.242 96.2947 278.113 99.575 278.113 103.2H281.113H284.113C284.113 98.5585 282.983 94.2388 280.711 90.3009L278.112 91.8001ZM281.113 103.2H278.113C278.113 106.341 277.219 109.647 275.286 113.151L277.913 114.6L280.539 116.049C282.873 111.82 284.113 107.526 284.113 103.2H281.113ZM277.913 114.6L275.268 113.183C273.592 116.312 270.574 119.364 265.929 122.252L267.513 124.8L269.096 127.348C274.317 124.102 278.233 120.354 280.557 116.017L277.913 114.6ZM267.513 124.8L264.602 124.072C264.307 125.254 264.084 126.439 263.936 127.628L266.913 128L269.889 128.372C270.007 127.428 270.185 126.48 270.423 125.528L267.513 124.8ZM266.913 128L263.936 127.628C263.787 128.817 263.712 130.008 263.712 131.2H266.712H269.712C269.712 130.259 269.771 129.316 269.889 128.372L266.913 128ZM266.712 131.2H263.712C263.712 135.196 264.524 139.582 266.058 144.324L268.913 143.4L271.767 142.477C270.367 138.151 269.712 134.404 269.712 131.2H266.712ZM268.913 143.4L266.084 144.399C267.708 149.002 270.197 155.389 273.537 163.538L276.312 162.4L279.088 161.262C275.761 153.144 273.317 146.865 271.741 142.402L268.913 143.4ZM276.312 162.4L273.41 161.643C272.794 164.001 271.329 166.304 268.752 168.53L270.712 170.8L272.673 173.071C275.963 170.23 278.231 166.932 279.215 163.157L276.312 162.4ZM270.712 170.8L268.7 168.576C266.22 170.819 263.164 172.632 259.48 173.983L260.513 176.8L261.545 179.617C265.861 178.034 269.605 175.848 272.725 173.025L270.712 170.8ZM260.513 176.8L259.449 173.995C255.933 175.329 252.227 176 248.312 176V179V182C252.931 182 257.359 181.205 261.576 179.605L260.513 176.8Z" fill="black" mask="url(#path-1-outside-1_112_7)"/>
</svg>
