<svg width="34" height="23" viewBox="0 0 34 23" fill="none" xmlns="http://www.w3.org/2000/svg">
<mask id="path-1-outside-1_112_7" maskUnits="userSpaceOnUse" x="-0.0419922" y="-0.256104" width="35" height="23" fill="black">
<rect fill="white" x="-0.0419922" y="-0.256104" width="35" height="23"/>
<path d="M18.319 17.7439C17.8283 17.7439 17.353 17.6059 16.893 17.3299C16.4483 17.0539 16.088 16.6169 15.812 16.0189C15.536 15.4209 15.398 14.6542 15.398 13.7189C15.398 12.9522 15.49 12.0936 15.674 11.1429C15.858 10.1769 16.0956 9.2109 16.387 8.2449C16.6936 7.2789 17.0233 6.4049 17.376 5.6229C16.318 6.32823 15.3903 7.3019 14.593 8.5439C13.7956 9.7859 13.1056 11.2272 12.523 12.8679C12.6456 13.3586 12.7453 13.8186 12.822 14.2479C12.8986 14.6772 12.937 15.0682 12.937 15.4209C12.937 16.0956 12.776 16.6246 12.454 17.0079C12.132 17.3912 11.5723 17.5829 10.775 17.5829C10.0696 17.5829 9.5483 17.4296 9.21096 17.1229C8.88896 16.8009 8.72796 16.3562 8.72796 15.7889C8.72796 15.4209 8.7893 14.9992 8.91196 14.5239C9.04996 14.0486 9.24163 13.5349 9.48696 12.9829C9.21096 12.1702 8.87363 11.2579 8.47496 10.2459C8.0763 9.21856 7.51663 8.09923 6.79596 6.8879C6.58129 7.79256 6.35896 8.69723 6.12896 9.6019C5.9143 10.4912 5.7303 11.3192 5.57696 12.0859C5.43896 12.8372 5.36996 13.4736 5.36996 13.9949C5.36996 14.8382 5.59996 15.2599 6.05996 15.2599L6.10596 15.3059C6.10596 15.8119 5.97563 16.2489 5.71496 16.6169C5.46963 16.9696 5.14763 17.2456 4.74896 17.4449C4.36563 17.6289 3.9593 17.7209 3.52996 17.7209C3.11596 17.7209 2.70963 17.6212 2.31096 17.4219C1.92763 17.2226 1.61329 16.9159 1.36796 16.5019C1.12263 16.0726 0.999962 15.5282 0.999962 14.8689C0.999962 14.2402 1.10729 13.5579 1.32196 12.8219C1.55196 12.0706 1.83563 11.3116 2.17296 10.5449C2.51029 9.7629 2.8553 9.0039 3.20796 8.2679C3.56063 7.51656 3.87496 6.8189 4.15096 6.1749C4.4423 5.51556 4.63396 4.94056 4.72596 4.4499C4.41929 4.23523 4.08963 4.1279 3.73696 4.1279C3.44563 4.1279 3.14663 4.22756 2.83996 4.4269C2.54863 4.6109 2.27263 4.92523 2.01196 5.3699L1.85096 5.3009C1.8663 4.5189 2.03496 3.8059 2.35696 3.1619C2.67896 2.50256 3.10063 1.98123 3.62196 1.5979C4.15863 1.19923 4.7413 0.999895 5.36996 0.999895C6.09063 0.999895 6.8343 1.31423 7.60096 1.9429C8.36763 2.57156 9.07296 3.60656 9.71696 5.0479C10.3763 6.48923 10.9053 8.43656 11.304 10.8899C11.8866 9.0039 12.5153 7.42456 13.19 6.1519C13.8646 4.87923 14.5546 3.86723 15.26 3.1159C15.9806 2.36456 16.686 1.8279 17.376 1.5059C18.0813 1.16856 18.7483 0.999895 19.377 0.999895C20.159 0.999895 20.8566 1.19156 21.47 1.5749C22.0986 1.95823 22.5893 2.44123 22.942 3.0239C23.31 3.60656 23.494 4.18923 23.494 4.7719C23.1106 4.66456 22.7273 4.5879 22.344 4.5419C21.976 4.4959 21.6156 4.4729 21.263 4.4729C20.9103 4.4729 20.573 4.4959 20.251 4.5419C20.113 5.24723 19.9673 6.0369 19.814 6.9109C19.6606 7.76956 19.5226 8.6359 19.4 9.5099C19.2926 10.3839 19.239 11.1889 19.239 11.9249C19.239 12.6762 19.3156 13.2896 19.469 13.7649C19.6223 14.2402 19.8906 14.4779 20.274 14.4779C20.5193 14.4779 20.7646 14.3706 21.01 14.1559C21.2706 13.9412 21.4623 13.6116 21.585 13.1669L21.746 13.2359C21.746 14.2479 21.5773 15.0912 21.24 15.7659C20.9026 16.4252 20.4656 16.9236 19.929 17.2609C19.4076 17.5829 18.871 17.7439 18.319 17.7439ZM29.2109 21.2399C29.1036 21.2399 28.9962 21.2322 28.8889 21.2169C28.7969 21.2169 28.6972 21.2092 28.5899 21.1939C28.4979 20.5346 28.4289 19.8752 28.3829 19.2159C28.3369 18.5719 28.3062 17.9586 28.2909 17.3759C27.5549 17.7132 26.7959 17.8819 26.0139 17.8819C25.0326 17.8819 24.1049 17.6136 23.2309 17.0769C22.3722 16.5402 21.6746 15.7199 21.1379 14.6159C20.6012 13.5119 20.3329 12.1242 20.3329 10.4529C20.3329 8.82756 20.5859 7.42456 21.0919 6.2439C21.5979 5.06323 22.2572 4.08956 23.0699 3.3229C23.8826 2.55623 24.7642 1.9889 25.7149 1.6209C26.6656 1.2529 27.5856 1.0689 28.4749 1.0689C29.2722 1.0689 30.0006 1.2069 30.6599 1.4829C31.3192 1.74356 31.8406 2.11923 32.2239 2.6099C32.6226 3.08523 32.8219 3.66023 32.8219 4.3349C32.8219 4.8869 32.6686 5.40823 32.3619 5.8989C32.0552 6.38956 31.5876 6.78823 30.9589 7.0949C30.3302 7.38623 29.5329 7.5319 28.5669 7.5319C28.7202 7.08723 28.8276 6.68856 28.8889 6.3359C28.9502 5.98323 28.9809 5.67656 28.9809 5.4159C28.9809 4.83323 28.8582 4.44223 28.6129 4.2429C28.3676 4.02823 28.0839 3.9209 27.7619 3.9209C27.1332 3.9209 26.5659 4.20456 26.0599 4.7719C25.5539 5.33923 25.1552 6.0829 24.8639 7.0029C24.5726 7.90756 24.4269 8.88123 24.4269 9.9239C24.4269 11.4112 24.7182 12.5766 25.3009 13.4199C25.8836 14.2632 26.6119 14.6849 27.4859 14.6849C27.8232 14.6849 28.1759 14.6159 28.5439 14.4779V14.4549C28.5439 13.3049 28.6436 12.3926 28.8429 11.7179C29.0576 11.0279 29.3259 10.5372 29.6479 10.2459C29.9852 9.95456 30.3302 9.8089 30.6829 9.8089C31.0662 9.8089 31.4266 9.93923 31.7639 10.1999C32.1166 10.4606 32.4079 10.7979 32.6379 11.2119C32.8679 11.6106 32.9829 12.0476 32.9829 12.5229C32.9829 12.9522 32.8602 13.3892 32.6149 13.8339C32.3849 14.2632 31.9862 14.6542 31.4189 15.0069C31.3882 15.1296 31.3652 15.2522 31.3499 15.3749C31.3346 15.4976 31.3269 15.6202 31.3269 15.7429C31.3269 16.1569 31.4112 16.6246 31.5799 17.1459C31.7639 17.6672 32.0476 18.3956 32.4309 19.3309C32.3389 19.6836 32.1242 20.0056 31.7869 20.2969C31.4649 20.5882 31.0739 20.8182 30.6139 20.9869C30.1692 21.1556 29.7016 21.2399 29.2109 21.2399Z"/>
</mask>
<path d="M18.319 17.7439C17.8283 17.7439 17.353 17.6059 16.893 17.3299C16.4483 17.0539 16.088 16.6169 15.812 16.0189C15.536 15.4209 15.398 14.6542 15.398 13.7189C15.398 12.9522 15.49 12.0936 15.674 11.1429C15.858 10.1769 16.0956 9.2109 16.387 8.2449C16.6936 7.2789 17.0233 6.4049 17.376 5.6229C16.318 6.32823 15.3903 7.3019 14.593 8.5439C13.7956 9.7859 13.1056 11.2272 12.523 12.8679C12.6456 13.3586 12.7453 13.8186 12.822 14.2479C12.8986 14.6772 12.937 15.0682 12.937 15.4209C12.937 16.0956 12.776 16.6246 12.454 17.0079C12.132 17.3912 11.5723 17.5829 10.775 17.5829C10.0696 17.5829 9.5483 17.4296 9.21096 17.1229C8.88896 16.8009 8.72796 16.3562 8.72796 15.7889C8.72796 15.4209 8.7893 14.9992 8.91196 14.5239C9.04996 14.0486 9.24163 13.5349 9.48696 12.9829C9.21096 12.1702 8.87363 11.2579 8.47496 10.2459C8.0763 9.21856 7.51663 8.09923 6.79596 6.8879C6.58129 7.79256 6.35896 8.69723 6.12896 9.6019C5.9143 10.4912 5.7303 11.3192 5.57696 12.0859C5.43896 12.8372 5.36996 13.4736 5.36996 13.9949C5.36996 14.8382 5.59996 15.2599 6.05996 15.2599L6.10596 15.3059C6.10596 15.8119 5.97563 16.2489 5.71496 16.6169C5.46963 16.9696 5.14763 17.2456 4.74896 17.4449C4.36563 17.6289 3.9593 17.7209 3.52996 17.7209C3.11596 17.7209 2.70963 17.6212 2.31096 17.4219C1.92763 17.2226 1.61329 16.9159 1.36796 16.5019C1.12263 16.0726 0.999962 15.5282 0.999962 14.8689C0.999962 14.2402 1.10729 13.5579 1.32196 12.8219C1.55196 12.0706 1.83563 11.3116 2.17296 10.5449C2.51029 9.7629 2.8553 9.0039 3.20796 8.2679C3.56063 7.51656 3.87496 6.8189 4.15096 6.1749C4.4423 5.51556 4.63396 4.94056 4.72596 4.4499C4.41929 4.23523 4.08963 4.1279 3.73696 4.1279C3.44563 4.1279 3.14663 4.22756 2.83996 4.4269C2.54863 4.6109 2.27263 4.92523 2.01196 5.3699L1.85096 5.3009C1.8663 4.5189 2.03496 3.8059 2.35696 3.1619C2.67896 2.50256 3.10063 1.98123 3.62196 1.5979C4.15863 1.19923 4.7413 0.999895 5.36996 0.999895C6.09063 0.999895 6.8343 1.31423 7.60096 1.9429C8.36763 2.57156 9.07296 3.60656 9.71696 5.0479C10.3763 6.48923 10.9053 8.43656 11.304 10.8899C11.8866 9.0039 12.5153 7.42456 13.19 6.1519C13.8646 4.87923 14.5546 3.86723 15.26 3.1159C15.9806 2.36456 16.686 1.8279 17.376 1.5059C18.0813 1.16856 18.7483 0.999895 19.377 0.999895C20.159 0.999895 20.8566 1.19156 21.47 1.5749C22.0986 1.95823 22.5893 2.44123 22.942 3.0239C23.31 3.60656 23.494 4.18923 23.494 4.7719C23.1106 4.66456 22.7273 4.5879 22.344 4.5419C21.976 4.4959 21.6156 4.4729 21.263 4.4729C20.9103 4.4729 20.573 4.4959 20.251 4.5419C20.113 5.24723 19.9673 6.0369 19.814 6.9109C19.6606 7.76956 19.5226 8.6359 19.4 9.5099C19.2926 10.3839 19.239 11.1889 19.239 11.9249C19.239 12.6762 19.3156 13.2896 19.469 13.7649C19.6223 14.2402 19.8906 14.4779 20.274 14.4779C20.5193 14.4779 20.7646 14.3706 21.01 14.1559C21.2706 13.9412 21.4623 13.6116 21.585 13.1669L21.746 13.2359C21.746 14.2479 21.5773 15.0912 21.24 15.7659C20.9026 16.4252 20.4656 16.9236 19.929 17.2609C19.4076 17.5829 18.871 17.7439 18.319 17.7439ZM29.2109 21.2399C29.1036 21.2399 28.9962 21.2322 28.8889 21.2169C28.7969 21.2169 28.6972 21.2092 28.5899 21.1939C28.4979 20.5346 28.4289 19.8752 28.3829 19.2159C28.3369 18.5719 28.3062 17.9586 28.2909 17.3759C27.5549 17.7132 26.7959 17.8819 26.0139 17.8819C25.0326 17.8819 24.1049 17.6136 23.2309 17.0769C22.3722 16.5402 21.6746 15.7199 21.1379 14.6159C20.6012 13.5119 20.3329 12.1242 20.3329 10.4529C20.3329 8.82756 20.5859 7.42456 21.0919 6.2439C21.5979 5.06323 22.2572 4.08956 23.0699 3.3229C23.8826 2.55623 24.7642 1.9889 25.7149 1.6209C26.6656 1.2529 27.5856 1.0689 28.4749 1.0689C29.2722 1.0689 30.0006 1.2069 30.6599 1.4829C31.3192 1.74356 31.8406 2.11923 32.2239 2.6099C32.6226 3.08523 32.8219 3.66023 32.8219 4.3349C32.8219 4.8869 32.6686 5.40823 32.3619 5.8989C32.0552 6.38956 31.5876 6.78823 30.9589 7.0949C30.3302 7.38623 29.5329 7.5319 28.5669 7.5319C28.7202 7.08723 28.8276 6.68856 28.8889 6.3359C28.9502 5.98323 28.9809 5.67656 28.9809 5.4159C28.9809 4.83323 28.8582 4.44223 28.6129 4.2429C28.3676 4.02823 28.0839 3.9209 27.7619 3.9209C27.1332 3.9209 26.5659 4.20456 26.0599 4.7719C25.5539 5.33923 25.1552 6.0829 24.8639 7.0029C24.5726 7.90756 24.4269 8.88123 24.4269 9.9239C24.4269 11.4112 24.7182 12.5766 25.3009 13.4199C25.8836 14.2632 26.6119 14.6849 27.4859 14.6849C27.8232 14.6849 28.1759 14.6159 28.5439 14.4779V14.4549C28.5439 13.3049 28.6436 12.3926 28.8429 11.7179C29.0576 11.0279 29.3259 10.5372 29.6479 10.2459C29.9852 9.95456 30.3302 9.8089 30.6829 9.8089C31.0662 9.8089 31.4266 9.93923 31.7639 10.1999C32.1166 10.4606 32.4079 10.7979 32.6379 11.2119C32.8679 11.6106 32.9829 12.0476 32.9829 12.5229C32.9829 12.9522 32.8602 13.3892 32.6149 13.8339C32.3849 14.2632 31.9862 14.6542 31.4189 15.0069C31.3882 15.1296 31.3652 15.2522 31.3499 15.3749C31.3346 15.4976 31.3269 15.6202 31.3269 15.7429C31.3269 16.1569 31.4112 16.6246 31.5799 17.1459C31.7639 17.6672 32.0476 18.3956 32.4309 19.3309C32.3389 19.6836 32.1242 20.0056 31.7869 20.2969C31.4649 20.5882 31.0739 20.8182 30.6139 20.9869C30.1692 21.1556 29.7016 21.2399 29.2109 21.2399Z" fill="white"/>
<path d="M16.893 17.3299L16.3656 18.1795L16.372 18.1835L16.3785 18.1874L16.893 17.3299ZM15.812 16.0189L14.904 16.438L14.904 16.438L15.812 16.0189ZM15.674 11.1429L16.6557 11.3329L16.6563 11.33L15.674 11.1429ZM16.387 8.2449L15.4338 7.94232L15.4316 7.94922L15.4296 7.95615L16.387 8.2449ZM17.376 5.6229L18.2875 6.034L19.7196 2.85864L16.8213 4.79085L17.376 5.6229ZM14.593 8.5439L15.4345 9.08413L15.4345 9.08413L14.593 8.5439ZM12.523 12.8679L11.5806 12.5332L11.4796 12.8176L11.5528 13.1104L12.523 12.8679ZM12.822 14.2479L13.8064 14.0721L13.8064 14.0721L12.822 14.2479ZM12.454 17.0079L13.2197 17.6511L13.2197 17.6511L12.454 17.0079ZM9.21096 17.1229L8.50386 17.83L8.52068 17.8468L8.53829 17.8628L9.21096 17.1229ZM8.91196 14.5239L7.95162 14.2451L7.94743 14.2595L7.94368 14.274L8.91196 14.5239ZM9.48696 12.9829L10.4008 13.389L10.5596 13.0316L10.4338 12.6613L9.48696 12.9829ZM8.47496 10.2459L7.54268 10.6077L7.54455 10.6124L8.47496 10.2459ZM6.79596 6.8879L7.65537 6.3766L6.39301 4.25476L5.82298 6.65702L6.79596 6.8879ZM6.12896 9.6019L5.15972 9.35548L5.15688 9.36726L6.12896 9.6019ZM5.57696 12.0859L4.59638 11.8898L4.59484 11.8975L4.59341 11.9052L5.57696 12.0859ZM6.05996 15.2599L6.76707 14.5528L6.47418 14.2599H6.05996V15.2599ZM6.10596 15.3059H7.10596V14.8917L6.81307 14.5988L6.10596 15.3059ZM5.71496 16.6169L4.89891 16.0389L4.89406 16.0458L5.71496 16.6169ZM4.74896 17.4449L5.18169 18.3464L5.18896 18.3429L5.19618 18.3393L4.74896 17.4449ZM2.31096 17.4219L1.84961 18.3091L1.85665 18.3128L1.86375 18.3163L2.31096 17.4219ZM1.36796 16.5019L0.499718 16.998L0.50364 17.0049L0.50767 17.0117L1.36796 16.5019ZM1.32196 12.8219L0.365677 12.5292L0.361962 12.5419L1.32196 12.8219ZM2.17296 10.5449L3.0883 10.9476L3.09117 10.941L2.17296 10.5449ZM3.20796 8.2679L4.10981 8.70003L4.1132 8.6928L3.20796 8.2679ZM4.15096 6.1749L3.23622 5.77071L3.23182 5.78098L4.15096 6.1749ZM4.72596 4.4499L5.70883 4.63418L5.82766 4.00043L5.29942 3.63066L4.72596 4.4499ZM2.83996 4.4269L3.374 5.27246L3.38495 5.26534L2.83996 4.4269ZM2.01196 5.3699L1.61805 6.28904L2.42866 6.63644L2.87466 5.87562L2.01196 5.3699ZM1.85096 5.3009L0.851154 5.28129L0.837949 5.95472L1.45705 6.22004L1.85096 5.3009ZM2.35696 3.1619L3.25143 3.60913L3.25553 3.60073L2.35696 3.1619ZM3.62196 1.5979L4.21436 2.40356L4.21829 2.40064L3.62196 1.5979ZM7.60096 1.9429L8.23504 1.16963L8.23504 1.16963L7.60096 1.9429ZM9.71696 5.0479L8.80392 5.45585L8.80759 5.46388L9.71696 5.0479ZM11.304 10.8899L10.3169 11.0503L12.2594 11.1851L11.304 10.8899ZM13.19 6.1519L12.3064 5.68352L12.3064 5.68352L13.19 6.1519ZM15.26 3.1159L14.5382 2.42363L14.5309 2.43146L15.26 3.1159ZM17.376 1.5059L17.7989 2.41212L17.8074 2.40803L17.376 1.5059ZM21.47 1.5749L20.9399 2.42295L20.9494 2.42869L21.47 1.5749ZM22.942 3.0239L22.0865 3.5417L22.0914 3.54984L22.0965 3.55789L22.942 3.0239ZM23.494 4.7719L23.2243 5.73486L24.494 6.09036V4.7719H23.494ZM22.344 4.5419L22.2199 5.53419L22.2248 5.53477L22.344 4.5419ZM20.251 4.5419L20.1095 3.55195L19.406 3.65245L19.2696 4.34988L20.251 4.5419ZM19.814 6.9109L20.7984 7.08669L20.7989 7.0837L19.814 6.9109ZM19.4 9.5099L18.4097 9.37091L18.4085 9.37945L18.4074 9.38801L19.4 9.5099ZM21.01 14.1559L20.3743 13.384L20.3627 13.3935L20.3515 13.4033L21.01 14.1559ZM21.585 13.1669L21.9789 12.2478L20.9257 11.7964L20.621 12.901L21.585 13.1669ZM21.746 13.2359H22.746V12.5765L22.1399 12.3168L21.746 13.2359ZM21.24 15.7659L22.1302 16.2214L22.1344 16.2131L21.24 15.7659ZM19.929 17.2609L20.4545 18.1117L20.4611 18.1075L19.929 17.2609ZM18.319 17.7439V16.7439C18.0262 16.7439 17.727 16.6641 17.4075 16.4724L16.893 17.3299L16.3785 18.1874C16.9789 18.5477 17.6304 18.7439 18.319 18.7439V17.7439ZM16.893 17.3299L17.4203 16.4803C17.1802 16.3312 16.9351 16.066 16.7199 15.5998L15.812 16.0189L14.904 16.438C15.2408 17.1678 15.7164 17.7766 16.3656 18.1795L16.893 17.3299ZM15.812 16.0189L16.7199 15.5998C16.5245 15.1763 16.398 14.5661 16.398 13.7189H15.398H14.398C14.398 14.7424 14.5475 15.6654 14.904 16.438L15.812 16.0189ZM15.398 13.7189H16.398C16.398 13.0301 16.4809 12.2365 16.6557 11.3329L15.674 11.1429L14.6922 10.9529C14.4991 11.9507 14.398 12.8744 14.398 13.7189H15.398ZM15.674 11.1429L16.6563 11.33C16.8336 10.3992 17.0629 9.46709 17.3444 8.53364L16.387 8.2449L15.4296 7.95615C15.1284 8.95471 14.8823 9.95462 14.6916 10.9558L15.674 11.1429ZM16.387 8.2449L17.3401 8.54747C17.6371 7.61201 17.9534 6.77501 18.2875 6.034L17.376 5.6229L16.4644 5.21179C16.0932 6.03478 15.7502 6.94579 15.4338 7.94232L16.387 8.2449ZM17.376 5.6229L16.8213 4.79085C15.6316 5.58395 14.6114 6.66414 13.7514 8.00366L14.593 8.5439L15.4345 9.08413C16.1692 7.93965 17.0043 7.07251 17.9307 6.45495L17.376 5.6229ZM14.593 8.5439L13.7514 8.00366C12.9061 9.32039 12.1845 10.8329 11.5806 12.5332L12.523 12.8679L13.4653 13.2026C14.0268 11.6215 14.6851 10.2514 15.4345 9.08413L14.593 8.5439ZM12.523 12.8679L11.5528 13.1104C11.6708 13.5824 11.7654 14.02 11.8375 14.4237L12.822 14.2479L13.8064 14.0721C13.7252 13.6172 13.6204 13.1347 13.4931 12.6254L12.523 12.8679ZM12.822 14.2479L11.8375 14.4237C11.9062 14.808 11.937 15.1391 11.937 15.4209H12.937H13.937C13.937 14.9974 13.8911 14.5465 13.8064 14.0721L12.822 14.2479ZM12.937 15.4209H11.937C11.937 15.9424 11.8134 16.2157 11.6883 16.3647L12.454 17.0079L13.2197 17.6511C13.7385 17.0334 13.937 16.2488 13.937 15.4209H12.937ZM12.454 17.0079L11.6883 16.3647C11.6451 16.4161 11.4505 16.5829 10.775 16.5829V17.5829V18.5829C11.6941 18.5829 12.6189 18.3663 13.2197 17.6511L12.454 17.0079ZM10.775 17.5829V16.5829C10.1874 16.5829 9.95874 16.4512 9.88363 16.383L9.21096 17.1229L8.53829 17.8628C9.13785 18.4079 9.95186 18.5829 10.775 18.5829V17.5829ZM9.21096 17.1229L9.91807 16.4158C9.8273 16.325 9.72796 16.16 9.72796 15.7889H8.72796H7.72796C7.72796 16.5525 7.95062 17.2768 8.50386 17.83L9.21096 17.1229ZM8.72796 15.7889H9.72796C9.72796 15.5279 9.7721 15.1928 9.88024 14.7738L8.91196 14.5239L7.94368 14.274C7.80649 14.8056 7.72796 15.3139 7.72796 15.7889H8.72796ZM8.91196 14.5239L9.87231 14.8027C9.99531 14.379 10.17 13.9083 10.4008 13.389L9.48696 12.9829L8.57315 12.5768C8.31329 13.1615 8.10462 13.7181 7.95162 14.2451L8.91196 14.5239ZM9.48696 12.9829L10.4338 12.6613C10.1516 11.8302 9.80842 10.9025 9.40537 9.87937L8.47496 10.2459L7.54455 10.6124C7.93883 11.6133 8.27035 12.5103 8.54008 13.3045L9.48696 12.9829ZM8.47496 10.2459L9.40723 9.88412C8.98383 8.79305 8.39701 7.6232 7.65537 6.3766L6.79596 6.8879L5.93655 7.39919C6.63624 8.57526 7.16877 9.64408 7.5427 10.6077L8.47496 10.2459ZM6.79596 6.8879L5.82298 6.65702C5.60955 7.55648 5.38849 8.45597 5.15979 9.3555L6.12896 9.6019L7.09813 9.84829C7.32944 8.93848 7.55304 8.02864 7.76894 7.11877L6.79596 6.8879ZM6.12896 9.6019L5.15688 9.36726C4.93963 10.2673 4.75268 11.1083 4.59638 11.8898L5.57696 12.0859L6.55754 12.282C6.70791 11.5302 6.88896 10.7152 7.10104 9.83654L6.12896 9.6019ZM5.57696 12.0859L4.59341 11.9052C4.44902 12.6914 4.36996 13.3921 4.36996 13.9949H5.36996H6.36996C6.36996 13.555 6.42891 12.9831 6.56051 12.2665L5.57696 12.0859ZM5.36996 13.9949H4.36996C4.36996 14.4747 4.42977 14.992 4.66457 15.4225C4.79017 15.6528 4.97491 15.8742 5.23664 16.0341C5.50062 16.1954 5.78687 16.2599 6.05996 16.2599V15.2599V14.2599C6.10306 14.2599 6.18805 14.2716 6.27954 14.3276C6.36877 14.3821 6.40975 14.4454 6.42036 14.4648C6.42795 14.4787 6.41265 14.4558 6.39696 14.3694C6.38165 14.2853 6.36996 14.1631 6.36996 13.9949H5.36996ZM6.05996 15.2599L5.35285 15.967L5.39885 16.013L6.10596 15.3059L6.81307 14.5988L6.76707 14.5528L6.05996 15.2599ZM6.10596 15.3059H5.10596C5.10596 15.6312 5.02554 15.8602 4.89894 16.0389L5.71496 16.6169L6.53099 17.1949C6.92572 16.6376 7.10596 15.9926 7.10596 15.3059H6.10596ZM5.71496 16.6169L4.89406 16.0458C4.74793 16.2559 4.55659 16.423 4.30175 16.5505L4.74896 17.4449L5.19618 18.3393C5.73867 18.0681 6.19133 17.6832 6.53587 17.188L5.71496 16.6169ZM4.74896 17.4449L4.31623 16.5434C4.0693 16.6619 3.811 16.7209 3.52996 16.7209V17.7209V18.7209C4.10759 18.7209 4.66196 18.5959 5.18169 18.3464L4.74896 17.4449ZM3.52996 17.7209V16.7209C3.28292 16.7209 3.02886 16.6628 2.75818 16.5275L2.31096 17.4219L1.86375 18.3163C2.3904 18.5796 2.949 18.7209 3.52996 18.7209V17.7209ZM2.31096 17.4219L2.77231 16.5347C2.57298 16.431 2.38959 16.2644 2.22825 15.9921L1.36796 16.5019L0.50767 17.0117C0.836997 17.5674 1.28228 18.0141 1.84961 18.3091L2.31096 17.4219ZM1.36796 16.5019L2.2362 16.0058C2.10131 15.7697 1.99996 15.4102 1.99996 14.8689H0.999962H-3.84487e-05C-3.84487e-05 15.6462 0.143946 16.3754 0.499718 16.998L1.36796 16.5019ZM0.999962 14.8689H1.99996C1.99996 14.3531 2.08824 13.7661 2.28196 13.1019L1.32196 12.8219L0.361962 12.5419C0.126354 13.3497 -3.84487e-05 14.1274 -3.84487e-05 14.8689H0.999962ZM1.32196 12.8219L2.27816 13.1146C2.49598 12.4031 2.76569 11.6808 3.08828 10.9476L2.17296 10.5449L1.25765 10.1422C0.905569 10.9423 0.607946 11.738 0.365762 12.5292L1.32196 12.8219ZM2.17296 10.5449L3.09117 10.941C3.4235 10.1706 3.76305 9.42361 4.10978 8.70002L3.20796 8.2679L2.30615 7.83578C1.94754 8.58418 1.59709 9.35521 1.25475 10.1488L2.17296 10.5449ZM3.20796 8.2679L4.1132 8.6928C4.46983 7.93303 4.78892 7.22491 5.07011 6.56882L4.15096 6.1749L3.23182 5.78098C2.961 6.41288 2.65143 7.1001 2.30272 7.84299L3.20796 8.2679ZM4.15096 6.1749L5.06565 6.57906C5.37565 5.87749 5.59791 5.22576 5.70883 4.63418L4.72596 4.4499L3.74309 4.26561C3.67001 4.65536 3.50894 5.15364 3.23628 5.77073L4.15096 6.1749ZM4.72596 4.4499L5.29942 3.63066C4.83559 3.30598 4.30774 3.1279 3.73696 3.1279V4.1279V5.1279C3.87152 5.1279 4.003 5.16448 4.1525 5.26913L4.72596 4.4499ZM3.73696 4.1279V3.1279C3.20814 3.1279 2.72251 3.31055 2.29497 3.58845L2.83996 4.4269L3.38495 5.26534C3.57075 5.14457 3.68312 5.1279 3.73696 5.1279V4.1279ZM2.83996 4.4269L2.30597 3.58141C1.82904 3.88263 1.45394 4.34443 1.14926 4.86418L2.01196 5.3699L2.87466 5.87562C3.09131 5.50603 3.26822 5.33916 3.37396 5.27238L2.83996 4.4269ZM2.01196 5.3699L2.40588 4.45075L2.24488 4.38175L1.85096 5.3009L1.45705 6.22004L1.61805 6.28904L2.01196 5.3699ZM1.85096 5.3009L2.85077 5.3205C2.86344 4.67407 3.00145 4.109 3.25139 3.60911L2.35696 3.1619L1.46253 2.71468C1.06848 3.5028 0.869145 4.36372 0.851154 5.28129L1.85096 5.3009ZM2.35696 3.1619L3.25553 3.60073C3.5162 3.06697 3.83976 2.67898 4.21435 2.40355L3.62196 1.5979L3.02957 0.792245C2.36149 1.28348 1.84172 1.93816 1.45839 2.72306L2.35696 3.1619ZM3.62196 1.5979L4.21829 2.40064C4.59416 2.12142 4.97016 1.9999 5.36996 1.9999V0.999895V-0.000104547C4.51243 -0.000104547 3.7231 0.27704 3.02564 0.795152L3.62196 1.5979ZM5.36996 0.999895V1.9999C5.78577 1.9999 6.31229 2.1794 6.96688 2.71616L7.60096 1.9429L8.23504 1.16963C7.3563 0.449056 6.39548 -0.000104547 5.36996 -0.000104547V0.999895ZM7.60096 1.9429L6.96688 2.71616C7.56291 3.20491 8.18976 4.08121 8.80395 5.45584L9.71696 5.0479L10.63 4.63996C9.95617 3.13192 9.17235 1.93822 8.23504 1.16963L7.60096 1.9429ZM9.71696 5.0479L8.80759 5.46388C9.41488 6.79145 9.92545 8.64129 10.3169 11.0503L11.304 10.8899L12.291 10.7295C11.8851 8.23183 11.3377 6.18701 10.6263 4.63191L9.71696 5.0479ZM11.304 10.8899L12.2594 11.1851C12.8298 9.33863 13.4367 7.82153 14.0735 6.62027L13.19 6.1519L12.3064 5.68352C11.5939 7.02759 10.9434 8.66916 10.3485 10.5947L11.304 10.8899ZM13.19 6.1519L14.0735 6.62027C14.7217 5.39757 15.3633 4.46685 15.989 3.80033L15.26 3.1159L14.5309 2.43146C13.7459 3.26761 13.0076 4.36089 12.3064 5.68352L13.19 6.1519ZM15.26 3.1159L15.9816 3.80812C16.6461 3.11537 17.2537 2.66649 17.7988 2.41208L17.376 1.5059L16.9531 0.599712C16.1182 0.9893 15.3151 1.61375 14.5383 2.42367L15.26 3.1159ZM17.376 1.5059L17.8074 2.40803C18.4101 2.11981 18.9295 1.9999 19.377 1.9999V0.999895V-0.000104547C18.5671 -0.000104547 17.7525 0.217318 16.9445 0.603762L17.376 1.5059ZM19.377 0.999895V1.9999C19.9874 1.9999 20.4985 2.14696 20.94 2.42289L21.47 1.5749L22 0.726898C21.2148 0.236167 20.3306 -0.000104547 19.377 -0.000104547V0.999895ZM21.47 1.5749L20.9494 2.42869C21.4524 2.73544 21.8235 3.10722 22.0865 3.5417L22.942 3.0239L23.7975 2.50609C23.3551 1.77523 22.7448 1.18102 21.9906 0.7211L21.47 1.5749ZM22.942 3.0239L22.0965 3.55789C22.3822 4.01035 22.494 4.41046 22.494 4.7719H23.494H24.494C24.494 3.968 24.2377 3.20278 23.7875 2.4899L22.942 3.0239ZM23.494 4.7719L23.7636 3.80893C23.3325 3.68822 22.8988 3.60131 22.4631 3.54902L22.344 4.5419L22.2248 5.53477C22.5557 5.57448 22.8888 5.64091 23.2243 5.73486L23.494 4.7719ZM22.344 4.5419L22.468 3.54962C22.061 3.49874 21.6592 3.4729 21.263 3.4729V4.4729V5.4729C21.5721 5.4729 21.891 5.49305 22.2199 5.53417L22.344 4.5419ZM21.263 4.4729V3.4729C20.8669 3.4729 20.4821 3.49872 20.1095 3.55195L20.251 4.5419L20.3924 5.53185C20.6638 5.49307 20.9537 5.4729 21.263 5.4729V4.4729ZM20.251 4.5419L19.2696 4.34988C19.1301 5.06288 18.9832 5.8591 18.829 6.7381L19.814 6.9109L20.7989 7.0837C20.9514 6.21469 21.0959 5.43158 21.2324 4.73391L20.251 4.5419ZM19.814 6.9109L18.8295 6.73511C18.674 7.60615 18.534 8.48475 18.4097 9.37091L19.4 9.5099L20.3903 9.64889C20.5112 8.78704 20.6473 7.93298 20.7984 7.08669L19.814 6.9109ZM19.4 9.5099L18.4074 9.38801C18.2961 10.2949 18.239 11.1412 18.239 11.9249H19.239H20.239C20.239 11.2366 20.2892 10.4729 20.3925 9.63179L19.4 9.5099ZM19.239 11.9249H18.239C18.239 12.7334 18.3201 13.4608 18.5173 14.0719L19.469 13.7649L20.4207 13.4579C20.3111 13.1183 20.239 12.619 20.239 11.9249H19.239ZM19.469 13.7649L18.5173 14.0719C18.6283 14.416 18.8113 14.7729 19.1222 15.0482C19.4526 15.3409 19.8564 15.4779 20.274 15.4779V14.4779V13.4779C20.2827 13.4779 20.3114 13.4795 20.3507 13.4939C20.391 13.5086 20.4246 13.5302 20.4482 13.5511C20.4702 13.5705 20.474 13.5809 20.4663 13.5678C20.458 13.5539 20.4407 13.5201 20.4207 13.4579L19.469 13.7649ZM20.274 14.4779V15.4779C20.8316 15.4779 21.3016 15.2295 21.6685 14.9085L21.01 14.1559L20.3515 13.4033C20.2897 13.4574 20.2523 13.4764 20.2411 13.4812C20.2332 13.4847 20.2465 13.4779 20.274 13.4779V14.4779ZM21.01 14.1559L21.6457 14.9278C22.1139 14.5422 22.3911 14.0049 22.549 13.4328L21.585 13.1669L20.621 12.901C20.5335 13.2182 20.4273 13.3402 20.3743 13.384L21.01 14.1559ZM21.585 13.1669L21.191 14.086L21.352 14.155L21.746 13.2359L22.1399 12.3168L21.9789 12.2478L21.585 13.1669ZM21.746 13.2359H20.746C20.746 14.1432 20.5939 14.822 20.3455 15.3187L21.24 15.7659L22.1344 16.2131C22.5607 15.3605 22.746 14.3525 22.746 13.2359H21.746ZM21.24 15.7659L20.3497 15.3104C20.0804 15.8368 19.757 16.1878 19.3968 16.4143L19.929 17.2609L20.4611 18.1075C21.1742 17.6593 21.7249 17.0136 22.1302 16.2214L21.24 15.7659ZM19.929 17.2609L19.4035 16.4101C19.0221 16.6456 18.6654 16.7439 18.319 16.7439V17.7439V18.7439C19.0766 18.7439 19.7931 18.5202 20.4545 18.1117L19.929 17.2609ZM28.8889 21.2169L29.0303 20.2269L28.96 20.2169H28.8889V21.2169ZM28.5899 21.1939L27.5995 21.3321L27.7035 22.0774L28.4485 22.1838L28.5899 21.1939ZM28.3829 19.2159L29.3805 19.1463L29.3804 19.1446L28.3829 19.2159ZM28.2909 17.3759L29.2906 17.3496L29.2507 15.8359L27.8742 16.4668L28.2909 17.3759ZM23.2309 17.0769L22.7009 17.9249L22.7076 17.9291L23.2309 17.0769ZM21.1379 14.6159L20.2385 15.0531L21.1379 14.6159ZM21.0919 6.2439L22.011 6.63782L22.011 6.63782L21.0919 6.2439ZM25.7149 1.6209L25.3539 0.688328L25.3539 0.688328L25.7149 1.6209ZM30.6599 1.4829L30.2738 2.40534L30.283 2.40919L30.2922 2.41286L30.6599 1.4829ZM32.2239 2.6099L31.4359 3.22554L31.4466 3.23921L31.4577 3.25251L32.2239 2.6099ZM32.3619 5.8989L31.5139 5.3689L31.5139 5.3689L32.3619 5.8989ZM30.9589 7.0949L31.3794 8.00221L31.3884 7.99802L31.3973 7.99366L30.9589 7.0949ZM28.5669 7.5319L27.6215 7.20591L27.1643 8.5319H28.5669V7.5319ZM28.8889 6.3359L29.8741 6.50724L29.8741 6.50724L28.8889 6.3359ZM28.6129 4.2429L27.9544 4.99547L27.9681 5.0075L27.9823 5.01901L28.6129 4.2429ZM24.8639 7.0029L25.8158 7.30943L25.8172 7.30479L24.8639 7.0029ZM25.3009 13.4199L26.1236 12.8515L26.1236 12.8515L25.3009 13.4199ZM28.5439 14.4779L28.895 15.4142L29.5439 15.1709V14.4779H28.5439ZM28.8429 11.7179L27.888 11.4208L27.8859 11.4277L27.8839 11.4346L28.8429 11.7179ZM29.6479 10.2459L28.9943 9.48907L28.9855 9.49662L28.977 9.50436L29.6479 10.2459ZM31.7639 10.1999L31.1525 10.9912L31.1609 10.9977L31.1695 11.0041L31.7639 10.1999ZM32.6379 11.2119L31.7637 11.6975L31.7677 11.7046L31.7717 11.7116L32.6379 11.2119ZM32.6149 13.8339L31.7393 13.3508L31.7334 13.3617L32.6149 13.8339ZM31.4189 15.0069L30.891 14.1576L30.547 14.3714L30.4488 14.7644L31.4189 15.0069ZM31.3499 15.3749L30.3576 15.2509L30.3576 15.2509L31.3499 15.3749ZM31.5799 17.1459L30.6285 17.4537L30.6325 17.4663L30.6369 17.4787L31.5799 17.1459ZM32.4309 19.3309L33.3985 19.5833L33.4827 19.2604L33.3562 18.9517L32.4309 19.3309ZM31.7869 20.2969L31.1333 19.5401L31.1245 19.5476L31.116 19.5554L31.7869 20.2969ZM30.6139 20.9869L30.2696 20.048L30.2592 20.0519L30.6139 20.9869ZM29.2109 21.2399V20.2399C29.1514 20.2399 29.0913 20.2357 29.0303 20.2269L28.8889 21.2169L28.7475 22.2068C28.9012 22.2288 29.0558 22.2399 29.2109 22.2399V21.2399ZM28.8889 21.2169V20.2169C28.8517 20.2169 28.7998 20.2137 28.7313 20.2039L28.5899 21.1939L28.4485 22.1838C28.5946 22.2047 28.7421 22.2169 28.8889 22.2169V21.2169ZM28.5899 21.1939L29.5803 21.0557C29.4915 20.419 29.4249 19.7825 29.3805 19.1463L28.3829 19.2159L27.3853 19.2855C27.4329 19.9679 27.5043 20.6501 27.5995 21.3321L28.5899 21.1939ZM28.3829 19.2159L29.3804 19.1446C29.3353 18.514 29.3055 17.9158 29.2906 17.3496L28.2909 17.3759L27.2912 17.4022C27.307 18.0014 27.3385 18.6298 27.3854 19.2871L28.3829 19.2159ZM28.2909 17.3759L27.8742 16.4668C27.2642 16.7464 26.647 16.8819 26.0139 16.8819V17.8819V18.8819C26.9448 18.8819 27.8456 18.68 28.7076 18.285L28.2909 17.3759ZM26.0139 17.8819V16.8819C25.2258 16.8819 24.4782 16.6693 23.7542 16.2247L23.2309 17.0769L22.7076 17.9291C23.7316 18.5578 24.8393 18.8819 26.0139 18.8819V17.8819ZM23.2309 17.0769L23.7609 16.2289C23.0924 15.8111 22.5094 15.1498 22.0373 14.1787L21.1379 14.6159L20.2385 15.0531C20.8398 16.2899 21.6521 17.2694 22.7009 17.9249L23.2309 17.0769ZM21.1379 14.6159L22.0373 14.1787C21.5863 13.251 21.3329 12.0246 21.3329 10.4529H20.3329H19.3329C19.3329 12.2238 19.6162 13.7728 20.2385 15.0531L21.1379 14.6159ZM20.3329 10.4529H21.3329C21.3329 8.92836 21.5705 7.6657 22.011 6.63782L21.0919 6.2439L20.1728 5.84998C19.6013 7.18343 19.3329 8.72676 19.3329 10.4529H20.3329ZM21.0919 6.2439L22.011 6.63782C22.4711 5.56435 23.057 4.70988 23.7561 4.05029L23.0699 3.3229L22.3837 2.5955C21.4575 3.46924 20.7247 4.56211 20.1728 5.84998L21.0919 6.2439ZM23.0699 3.3229L23.7561 4.05029C24.4837 3.36386 25.257 2.87046 26.0759 2.55346L25.7149 1.6209L25.3539 0.688328C24.2715 1.10733 23.2814 1.7486 22.3837 2.5955L23.0699 3.3229ZM25.7149 1.6209L26.0759 2.55346C26.9281 2.22359 27.7257 2.0689 28.4749 2.0689V1.0689V0.0688959C27.4454 0.0688959 26.4031 0.282203 25.3539 0.688328L25.7149 1.6209ZM28.4749 1.0689V2.0689C29.155 2.0689 29.7501 2.18613 30.2738 2.40534L30.6599 1.4829L31.046 0.560455C30.251 0.227659 29.3895 0.0688959 28.4749 0.0688959V1.0689ZM30.6599 1.4829L30.2922 2.41286C30.8094 2.6173 31.1767 2.89378 31.4359 3.22554L32.2239 2.6099L33.0119 1.99425C32.5044 1.34468 31.8291 0.869828 31.0276 0.552935L30.6599 1.4829ZM32.2239 2.6099L31.4577 3.25251C31.6917 3.53154 31.8219 3.87316 31.8219 4.3349H32.8219H33.8219C33.8219 3.44729 33.5534 2.63892 32.9901 1.96728L32.2239 2.6099ZM32.8219 4.3349H31.8219C31.8219 4.69022 31.7263 5.02913 31.5139 5.3689L32.3619 5.8989L33.2099 6.42889C33.6109 5.78733 33.8219 5.08357 33.8219 4.3349H32.8219ZM32.3619 5.8989L31.5139 5.3689C31.3255 5.67034 31.0161 5.95434 30.5205 6.19613L30.9589 7.0949L31.3973 7.99366C32.159 7.62212 32.785 7.10879 33.2099 6.42889L32.3619 5.8989ZM30.9589 7.0949L30.5384 6.18759C30.0828 6.39875 29.4413 6.5319 28.5669 6.5319V7.5319V8.5319C29.6245 8.5319 30.5777 8.37371 31.3794 8.00221L30.9589 7.0949ZM28.5669 7.5319L29.5123 7.85789C29.6779 7.37749 29.8013 6.92579 29.8741 6.50724L28.8889 6.3359L27.9037 6.16455C27.8538 6.45134 27.7625 6.79697 27.6215 7.20591L28.5669 7.5319ZM28.8889 6.3359L29.8741 6.50724C29.9419 6.11729 29.9809 5.75073 29.9809 5.4159H28.9809H27.9809C27.9809 5.60239 27.9585 5.84917 27.9037 6.16455L28.8889 6.3359ZM28.9809 5.4159H29.9809C29.9809 4.76897 29.8591 3.96696 29.2435 3.46678L28.6129 4.2429L27.9823 5.01901C27.9135 4.96307 27.9149 4.92184 27.9348 4.98499C27.9559 5.05227 27.9809 5.18698 27.9809 5.4159H28.9809ZM28.6129 4.2429L29.2714 3.49032C28.8463 3.11833 28.3294 2.9209 27.7619 2.9209V3.9209V4.9209C27.8384 4.9209 27.8889 4.93813 27.9544 4.99547L28.6129 4.2429ZM27.7619 3.9209V2.9209C26.7892 2.9209 25.9662 3.37463 25.3136 4.10628L26.0599 4.7719L26.8062 5.43751C27.1656 5.0345 27.4773 4.9209 27.7619 4.9209V3.9209ZM26.0599 4.7719L25.3136 4.10628C24.692 4.80321 24.2334 5.68149 23.9106 6.701L24.8639 7.0029L25.8172 7.30479C26.0771 6.4843 26.4158 5.87525 26.8062 5.43751L26.0599 4.7719ZM24.8639 7.0029L23.912 6.69636C23.5859 7.7092 23.4269 8.78721 23.4269 9.9239H24.4269H25.4269C25.4269 8.97525 25.5593 8.10592 25.8158 7.30943L24.8639 7.0029ZM24.4269 9.9239H23.4269C23.4269 11.5269 23.7388 12.9181 24.4782 13.9883L25.3009 13.4199L26.1236 12.8515C25.6977 12.235 25.4269 11.2955 25.4269 9.9239H24.4269ZM25.3009 13.4199L24.4782 13.9883C25.2105 15.0482 26.2232 15.6849 27.4859 15.6849V14.6849V13.6849C27.0006 13.6849 26.5567 13.4782 26.1236 12.8515L25.3009 13.4199ZM27.4859 14.6849V15.6849C27.9612 15.6849 28.433 15.5875 28.895 15.4142L28.5439 14.4779L28.1928 13.5416C27.9188 13.6443 27.6853 13.6849 27.4859 13.6849V14.6849ZM28.5439 14.4779H29.5439V14.4549H28.5439H27.5439V14.4779H28.5439ZM28.5439 14.4549H29.5439C29.5439 13.3483 29.6415 12.5443 29.8019 12.0012L28.8429 11.7179L27.8839 11.4346C27.6457 12.2408 27.5439 13.2615 27.5439 14.4549H28.5439ZM28.8429 11.7179L29.7978 12.015C29.9907 11.3949 30.1905 11.1035 30.3188 10.9874L29.6479 10.2459L28.977 9.50436C28.4613 9.97098 28.1245 10.6608 27.888 11.4208L28.8429 11.7179ZM29.6479 10.2459L30.3015 11.0027C30.5066 10.8256 30.6283 10.8089 30.6829 10.8089V9.8089V8.8089C30.0322 8.8089 29.4639 9.08351 28.9943 9.48907L29.6479 10.2459ZM30.6829 9.8089V10.8089C30.8201 10.8089 30.9695 10.8498 31.1525 10.9912L31.7639 10.1999L32.3753 9.40861C31.8836 9.02865 31.3124 8.8089 30.6829 8.8089V9.8089ZM31.7639 10.1999L31.1695 11.0041C31.3983 11.1731 31.5975 11.3984 31.7637 11.6975L32.6379 11.2119L33.5121 10.7263C33.2183 10.1974 32.8349 9.74798 32.3583 9.39572L31.7639 10.1999ZM32.6379 11.2119L31.7717 11.7116C31.9111 11.9532 31.9829 12.217 31.9829 12.5229H32.9829H33.9829C33.9829 11.8781 33.8247 11.2679 33.5041 10.7122L32.6379 11.2119ZM32.9829 12.5229H31.9829C31.9829 12.7548 31.918 13.027 31.7393 13.3508L32.6149 13.8339L33.4905 14.317C33.8025 13.7515 33.9829 13.1496 33.9829 12.5229H32.9829ZM32.6149 13.8339L31.7334 13.3617C31.6113 13.5896 31.3624 13.8646 30.891 14.1576L31.4189 15.0069L31.9468 15.8562C32.6101 15.4439 33.1585 14.9369 33.4964 14.3061L32.6149 13.8339ZM31.4189 15.0069L30.4488 14.7644C30.4086 14.9252 30.3781 15.0874 30.3576 15.2509L31.3499 15.3749L32.3422 15.4989C32.3524 15.4171 32.3679 15.334 32.389 15.2494L31.4189 15.0069ZM31.3499 15.3749L30.3576 15.2509C30.3372 15.4144 30.3269 15.5784 30.3269 15.7429H31.3269H32.3269C32.3269 15.662 32.3319 15.5808 32.3422 15.4989L31.3499 15.3749ZM31.3269 15.7429H30.3269C30.3269 16.289 30.4374 16.8631 30.6285 17.4537L31.5799 17.1459L32.5313 16.8381C32.3851 16.386 32.3269 16.0248 32.3269 15.7429H31.3269ZM31.5799 17.1459L30.6369 17.4787C30.8292 18.0235 31.1202 18.7698 31.5056 19.7101L32.4309 19.3309L33.3562 18.9517C32.9749 18.0214 32.6986 17.311 32.5229 16.8131L31.5799 17.1459ZM32.4309 19.3309L31.4633 19.0785C31.4329 19.1951 31.3519 19.3513 31.1333 19.5401L31.7869 20.2969L32.4405 21.0537C32.8966 20.6598 33.2449 20.1721 33.3985 19.5833L32.4309 19.3309ZM31.7869 20.2969L31.116 19.5554C30.9006 19.7502 30.6245 19.9179 30.2696 20.048L30.6139 20.9869L30.9582 21.9258C31.5233 21.7186 32.0292 21.4263 32.4578 21.0384L31.7869 20.2969ZM30.6139 20.9869L30.2592 20.0519C29.9315 20.1762 29.5843 20.2399 29.2109 20.2399V21.2399V22.2399C29.8188 22.2399 30.407 22.1349 30.9686 21.9219L30.6139 20.9869Z" fill="black" mask="url(#path-1-outside-1_112_7)"/>
</svg>
